<?xml version="1.0" encoding="utf-8"?>
<!-- Generator: Adobe Illustrator 26.4.1, SVG Export Plug-In . SVG Version: 6.00 Build 0)  -->
<svg version="1.0" id="Capa_1" xmlns="http://www.w3.org/2000/svg" xmlns:xlink="http://www.w3.org/1999/xlink" x="0px" y="0px"
	 viewBox="0 0 1366 768.46" style="enable-background:new 0 0 1366 768.46;" xml:space="preserve">
<g style="opacity:0.23;">
	<rect style="fill:#F9DD41;" width="196.28" height="768.46"/>
	<rect x="196.28" style="fill:#FE9400;" width="196.28" height="768.46"/>
	<rect x="781.94" style="fill:#8943B0;" width="196.28" height="768.46"/>
	<rect x="973.43" style="fill:#1574CD;" width="196.28" height="768.46"/>
	<rect x="1169.72" style="fill:#20C868;" width="196.28" height="768.46"/>
	<rect x="588.85" style="fill:#ED51AA;" width="196.28" height="768.46"/>
	<rect x="392.57" style="fill:#F22631;" width="196.28" height="768.46"/>
</g>
<g>
	<path style="fill:#1574CD;" d="M783.38,652.89h-247.7c-18.57,0-33.62-15.05-33.62-33.62V115.08c0-18.57,15.05-33.62,33.62-33.62
		h247.7c18.57,0,33.62,15.05,33.62,33.62v504.19C817,637.84,801.95,652.89,783.38,652.89z"/>
	<path style="fill:#47DEEC;" d="M787.88,654.46H531.12c-16.08,0-29.12-13.04-29.12-29.12v0h315v0
		C817,641.42,803.96,654.46,787.88,654.46z"/>
	<g>
		<path style="fill:#FFFFFF;" d="M769.15,298.73H549.92c-14.32,0-25.94-11.61-25.94-25.94v-80.4c0-14.32,11.61-25.94,25.94-25.94
			h219.23c14.32,0,25.94,11.61,25.94,25.94v80.4C795.09,287.12,783.47,298.73,769.15,298.73z"/>
		<g>
			<path style="fill:#FFFFFF;" d="M730.34,327.86H556.15c-1.9,0-3.45-1.54-3.45-3.45v0c0-1.9,1.54-3.45,3.45-3.45h174.19
				c1.9,0,3.45,1.54,3.45,3.45v0C733.79,326.32,732.24,327.86,730.34,327.86z"/>
			<g>
				<g>
					<path style="fill:#FFFFFF;" d="M750.76,324.11c0,1.17-0.19,2.04-0.56,2.61c-0.38,0.57-0.95,0.85-1.73,0.85
						c-0.75,0-1.32-0.29-1.71-0.88c-0.39-0.59-0.58-1.45-0.58-2.58c0-1.19,0.19-2.07,0.56-2.63c0.38-0.56,0.95-0.85,1.72-0.85
						c0.75,0,1.32,0.3,1.71,0.89S750.76,322.98,750.76,324.11z M747.28,324.11c0,0.92,0.09,1.58,0.28,1.97s0.49,0.59,0.91,0.59
						s0.72-0.2,0.91-0.6c0.19-0.4,0.29-1.05,0.29-1.96c0-0.9-0.1-1.56-0.29-1.96c-0.19-0.4-0.5-0.61-0.91-0.61s-0.72,0.2-0.91,0.59
						S747.28,323.19,747.28,324.11z"/>
					<path style="fill:#FFFFFF;" d="M751.78,326.91c0-0.22,0.06-0.4,0.18-0.52c0.12-0.12,0.29-0.18,0.51-0.18
						c0.22,0,0.4,0.06,0.51,0.19c0.12,0.12,0.18,0.29,0.18,0.51c0,0.22-0.06,0.39-0.18,0.52s-0.29,0.19-0.51,0.19
						s-0.39-0.06-0.51-0.19C751.84,327.3,751.78,327.13,751.78,326.91z"/>
					<path style="fill:#FFFFFF;" d="M758.75,324.11c0,1.17-0.19,2.04-0.56,2.61c-0.38,0.57-0.95,0.85-1.73,0.85
						c-0.75,0-1.32-0.29-1.71-0.88c-0.39-0.59-0.58-1.45-0.58-2.58c0-1.19,0.19-2.07,0.56-2.63c0.38-0.56,0.95-0.85,1.72-0.85
						c0.75,0,1.32,0.3,1.71,0.89S758.75,322.98,758.75,324.11z M755.26,324.11c0,0.92,0.09,1.58,0.28,1.97s0.49,0.59,0.91,0.59
						s0.72-0.2,0.91-0.6c0.19-0.4,0.29-1.05,0.29-1.96c0-0.9-0.1-1.56-0.29-1.96c-0.19-0.4-0.5-0.61-0.91-0.61s-0.72,0.2-0.91,0.59
						S755.26,323.19,755.26,324.11z"/>
					<path style="fill:#FFFFFF;" d="M760.33,327.48l2.67-5.78h-3.51v-0.95h4.66v0.76l-2.65,5.98H760.33z"/>
				</g>
			</g>
		</g>
		<g>
			<path style="fill:#FFFFFF;" d="M768.72,410.54H552.71c-14.56,0-26.37-11.81-26.37-26.37v-0.02c0-14.56,11.81-26.37,26.37-26.37
				h216.01c14.56,0,26.37,11.81,26.37,26.37v0.02C795.09,398.73,783.28,410.54,768.72,410.54z"/>
			<circle style="fill:#FDCF69;" cx="552.33" cy="383.77" r="15.75"/>
		</g>
		<g>
			<path style="fill:#FFFFFF;" d="M768.72,472.73H552.71c-14.56,0-26.37-11.81-26.37-26.37v-0.02c0-14.56,11.81-26.37,26.37-26.37
				h216.01c14.56,0,26.37,11.81,26.37,26.37v0.02C795.09,460.93,783.28,472.73,768.72,472.73z"/>
			<circle style="fill:#47DEEC;" cx="552.33" cy="445.97" r="15.75"/>
		</g>
		<g>
			<path style="fill:#FFFFFF;" d="M768.72,534.93H552.71c-14.56,0-26.37-11.81-26.37-26.37v-0.02c0-14.56,11.81-26.37,26.37-26.37
				h216.01c14.56,0,26.37,11.81,26.37,26.37v0.02C795.09,523.13,783.28,534.93,768.72,534.93z"/>
			<circle style="fill:#D274D4;" cx="552.33" cy="508.16" r="15.75"/>
		</g>
		<g>
			<path style="fill:#FFFFFF;" d="M768.72,597.13H552.71c-14.56,0-26.37-11.81-26.37-26.37v-0.02c0-14.56,11.81-26.37,26.37-26.37
				h216.01c14.56,0,26.37,11.81,26.37,26.37v0.02C795.09,585.33,783.28,597.13,768.72,597.13z"/>
			<circle style="fill:#9CD546;" cx="552.33" cy="571.15" r="15.75"/>
		</g>
	</g>
</g>
<path style="fill:#F5CC21;" d="M634.82,150.74c-2.87-4.32-5.74-8.65-8.61-12.97c5.29-4.82,8.61-11.76,8.61-19.47
	c0-14.54-11.79-26.33-26.33-26.33s-26.33,11.79-26.33,26.33s11.79,26.33,26.33,26.33c3.06,0,5.99-0.52,8.72-1.48
	c2.92,4.08,5.85,8.16,8.77,12.24c1.61,1.64,4.12,2.03,6.15,0.96C634.16,155.29,635.26,153,634.82,150.74z M589.46,118.3
	c0-10.51,8.52-19.03,19.03-19.03s19.03,8.52,19.03,19.03s-8.52,19.03-19.03,19.03S589.46,128.81,589.46,118.3z"/>
<path style="fill:#353FD4;" d="M582.48,100.23c-0.36-0.15-1.36-0.49-2.6-0.22c-0.38,0.08-1.4,0.36-2.28,1.28
	c0.15-0.38,0.46-1.28,0.26-2.42c-0.23-1.36-1.04-2.19-1.32-2.47c0.28,0.16,1.22,0.65,2.46,0.45c1.47-0.24,2.27-1.29,2.43-1.51
	c-0.15,0.37-0.53,1.46-0.18,2.79C581.53,99.26,582.18,99.95,582.48,100.23z"/>
<g>
	<g>
		<path style="fill:#111315;" d="M605.85,124.24v-4.79c0.96,0,1.78-0.05,2.47-0.15c0.69-0.1,1.25-0.31,1.69-0.63
			c0.44-0.32,0.77-0.81,0.98-1.46c0.21-0.65,0.32-1.53,0.32-2.63c0-0.5-0.06-0.94-0.19-1.31c-0.13-0.38-0.42-0.56-0.88-0.56
			c-0.33,0-0.57,0.11-0.73,0.32c-0.15,0.21-0.25,0.48-0.29,0.81c-0.04,0.33-0.06,0.67-0.06,1.02v1.68h-4.22v-2.93
			c0-1.55,0.49-2.7,1.48-3.45c0.99-0.75,2.26-1.12,3.82-1.12c1.37,0,2.44,0.25,3.23,0.74c0.79,0.49,1.35,1.21,1.68,2.15
			c0.33,0.94,0.5,2.09,0.5,3.45c0,1.33-0.22,2.52-0.65,3.56c-0.43,1.04-1.09,1.87-1.98,2.47c-0.88,0.6-2,0.9-3.34,0.9v1.96H605.85z
			 M605.73,129.47v-3.43h4.12v3.43H605.73z"/>
	</g>
</g>
<g>
	<path style="fill:#333FD6;" d="M645.08,137.6c-1.32,0-2.33-0.28-3.03-0.83c-0.7-0.55-1.17-1.32-1.43-2.31
		c-0.25-0.99-0.38-2.14-0.38-3.46v-18.46h5.96v17.77c0,0.99,0.08,1.68,0.23,2.07c0.15,0.39,0.51,0.59,1.08,0.59
		c0.61,0,0.99-0.28,1.15-0.83c0.16-0.55,0.24-1.26,0.24-2.13v-17.47h5.96v24.79h-5.96v-2.64c-0.37,0.95-0.82,1.67-1.35,2.17
		C647.03,137.36,646.21,137.6,645.08,137.6z"/>
	<path style="fill:#333FD6;" d="M657.16,111.01v-5h5.96v5H657.16z M657.16,137.34v-24.79h5.96v24.79H657.16z"/>
	<path style="fill:#333FD6;" d="M664.66,137.34v-3.67l6.18-16.51h-5.99v-4.61h12.11v4.04l-5.88,16.34h5.88v4.42H664.66z"/>
	<path style="fill:#47DDEF;" d="M691.45,137.58c-1.61,0-2.7-0.34-3.26-1.03c-0.56-0.68-0.84-1.73-0.84-3.15v-15.48h-1.73v-4.42h1.73
		v-5.19h5.77v5.19h1.73v4.42h-1.73v13.78c0,0.4,0.07,0.68,0.21,0.84c0.14,0.16,0.4,0.24,0.79,0.24c0.27,0,0.52-0.02,0.74-0.06v4.4
		c-0.13,0.04-0.55,0.13-1.25,0.26C692.88,137.51,692.17,137.58,691.45,137.58z"/>
	<path style="fill:#47DDEF;" d="M696.56,111.01v-5h5.96v5H696.56z M696.56,137.34v-24.79h5.96v24.79H696.56z"/>
	<path style="fill:#47DDEF;" d="M704.83,137.34v-24.79h5.96v2.88c0.26-1.01,0.71-1.79,1.35-2.33c0.64-0.54,1.57-0.81,2.8-0.81
		c0.99,0,1.83,0.23,2.53,0.69c0.7,0.46,1.19,1.06,1.47,1.81c0.45-0.82,0.98-1.44,1.59-1.86c0.61-0.42,1.48-0.64,2.61-0.64
		c1.37,0,2.43,0.3,3.17,0.88c0.74,0.59,1.26,1.41,1.55,2.45c0.29,1.04,0.44,2.25,0.44,3.61v18.12h-5.77v-18.22
		c0-1.6-0.42-2.4-1.25-2.4c-0.44,0-0.78,0.15-1.01,0.44c-0.24,0.29-0.4,0.65-0.49,1.08c-0.09,0.43-0.13,0.86-0.13,1.29v17.81h-5.96
		v-18.22c0-0.52-0.07-1.04-0.19-1.55c-0.13-0.52-0.46-0.78-0.99-0.78c-0.45,0-0.8,0.16-1.05,0.48c-0.25,0.32-0.42,0.71-0.51,1.18
		c-0.09,0.47-0.14,0.93-0.14,1.38v17.51H704.83z"/>
	<path style="fill:#47DDEF;" d="M737.55,137.67c-1.77,0-3.17-0.33-4.22-1c-1.05-0.67-1.8-1.63-2.25-2.89
		c-0.45-1.26-0.68-2.77-0.68-4.55v-10.08c0-2.33,0.66-4.09,1.99-5.29c1.32-1.2,3.15-1.8,5.47-1.8c4.77,0,7.15,2.36,7.15,7.09v1.82
		c0,2.21-0.02,3.69-0.07,4.45h-8.58v4.85c0,0.45,0.03,0.88,0.08,1.31c0.05,0.43,0.17,0.78,0.36,1.06c0.19,0.28,0.49,0.42,0.9,0.42
		c0.6,0,0.97-0.27,1.12-0.81c0.15-0.54,0.22-1.25,0.22-2.11v-2.41H745v1.42c0,1.87-0.23,3.44-0.69,4.7
		c-0.46,1.26-1.23,2.22-2.32,2.86C740.91,137.35,739.42,137.67,737.55,137.67z M736.35,122.54h2.88v-3.34
		c0-0.89-0.11-1.53-0.34-1.93c-0.23-0.39-0.57-0.59-1.02-0.59c-0.49,0-0.86,0.19-1.13,0.56c-0.27,0.37-0.4,1.03-0.4,1.95V122.54z"/>
</g>
<g>
</g>
<g>
</g>
<g>
</g>
<g>
</g>
<g>
</g>
<g>
</g>
<g>
</g>
<g>
</g>
<g>
</g>
<g>
</g>
<g>
</g>
<g>
</g>
<g>
</g>
<g>
</g>
<g>
</g>
</svg>
