<?xml version="1.0" encoding="utf-8"?>
<!-- Generator: Adobe Illustrator 26.4.1, SVG Export Plug-In . SVG Version: 6.00 Build 0)  -->
<svg version="1.0" id="Capa_1" xmlns="http://www.w3.org/2000/svg" xmlns:xlink="http://www.w3.org/1999/xlink" x="0px" y="0px"
	 viewBox="0 0 500 500" style="enable-background:new 0 0 500 500;" xml:space="preserve">
<path style="fill:#333FD6;" d="M384.75,492H115.25C56.29,492,8.5,444.21,8.5,385.25V115.75C8.5,56.79,56.29,9,115.25,9h269.49
	C443.71,9,491.5,56.79,491.5,115.75v269.49C491.5,444.21,443.71,492,384.75,492z"/>
<path style="fill:#F5CC21;" d="M379,379.49c-14.09-21.22-28.17-42.43-42.26-63.65c25.96-23.64,42.26-57.71,42.26-95.58
	c0-71.38-57.86-129.24-129.24-129.24s-129.24,57.86-129.24,129.24S178.39,349.5,249.76,349.5c15,0,29.4-2.56,42.8-7.26
	c14.35,20.03,28.7,40.06,43.05,60.09c7.9,8.04,20.22,9.96,30.19,4.72C375.77,401.8,381.16,390.55,379,379.49z M156.37,220.26
	c0-51.58,41.81-93.39,93.39-93.39s93.39,41.81,93.39,93.39s-41.81,93.39-93.39,93.39S156.37,271.84,156.37,220.26z"/>
<path style="fill:#F5CC21;" d="M122.14,131.59c-1.77-0.71-6.66-2.42-12.78-1.09c-1.87,0.4-6.87,1.75-11.18,6.29
	c0.75-1.87,2.25-6.3,1.29-11.86c-1.15-6.67-5.09-10.77-6.49-12.11c1.35,0.77,5.99,3.2,12.06,2.21c7.23-1.18,11.14-6.35,11.91-7.41
	c-0.72,1.8-2.61,7.16-0.89,13.71C117.48,126.79,120.68,130.2,122.14,131.59z"/>
<g>
	<g>
		<path style="fill:#4BDBEC;" d="M236.84,249.41v-23.52c4.71,0,8.75-0.24,12.13-0.73c3.37-0.49,6.14-1.53,8.31-3.11
			s3.77-3.98,4.81-7.18c1.04-3.2,1.55-7.5,1.55-12.89c0-2.45-0.31-4.6-0.93-6.45c-0.62-1.85-2.06-2.77-4.32-2.77
			c-1.62,0-2.81,0.52-3.56,1.55c-0.75,1.04-1.23,2.36-1.44,3.96c-0.21,1.6-0.31,3.27-0.31,5v8.25h-20.69v-14.36
			c0-7.61,2.42-13.26,7.27-16.93c4.84-3.67,11.09-5.51,18.74-5.51c6.71,0,11.99,1.21,15.86,3.62c3.86,2.41,6.62,5.93,8.26,10.54
			c1.64,4.62,2.46,10.26,2.46,16.93c0,6.52-1.07,12.34-3.2,17.47c-2.13,5.13-5.36,9.16-9.7,12.1c-4.34,2.94-9.8,4.41-16.4,4.41v9.61
			H236.84z M236.22,275.08v-16.85h20.24v16.85H236.22z"/>
	</g>
</g>
<g>
</g>
<g>
</g>
<g>
</g>
<g>
</g>
<g>
</g>
<g>
</g>
<g>
</g>
<g>
</g>
<g>
</g>
<g>
</g>
<g>
</g>
<g>
</g>
<g>
</g>
<g>
</g>
<g>
</g>
</svg>
