<?xml version="1.0" encoding="utf-8"?>
<!-- Generator: Adobe Illustrator 26.4.1, SVG Export Plug-In . SVG Version: 6.00 Build 0)  -->
<svg version="1.0" id="Capa_1" xmlns="http://www.w3.org/2000/svg" xmlns:xlink="http://www.w3.org/1999/xlink" x="0px" y="0px"
	 viewBox="0 0 915 382" style="enable-background:new 0 0 915 382;" xml:space="preserve">
<path style="fill:#F5CC21;" d="M313.98,334.01c-14.93-22.49-29.86-44.98-44.79-67.47c27.52-25.06,44.79-61.17,44.79-101.32
	c0-75.66-61.34-137-137-137s-137,61.34-137,137s61.34,137,137,137c15.9,0,31.17-2.72,45.37-7.7c15.21,21.23,30.42,42.47,45.63,63.7
	c8.37,8.52,21.43,10.56,32,5C310.55,357.66,316.27,345.73,313.98,334.01z M77.98,165.22c0-54.68,44.32-99,99-99s99,44.32,99,99
	s-44.32,99-99,99S77.98,219.9,77.98,165.22z"/>
<path style="fill:#353FD4;" d="M41.69,71.22c-1.88-0.76-7.06-2.56-13.55-1.15c-1.98,0.43-7.28,1.85-11.86,6.67
	c0.8-1.98,2.38-6.67,1.36-12.58c-1.22-7.07-5.39-11.42-6.88-12.83c1.43,0.82,6.35,3.4,12.79,2.34c7.67-1.26,11.81-6.74,12.62-7.85
	c-0.77,1.91-2.76,7.59-0.94,14.53C36.76,66.13,40.14,69.75,41.69,71.22z"/>
<g>
	<g>
		<path style="fill:#111315;" d="M163.28,196.12v-24.93c4.99,0,9.28-0.26,12.86-0.78c3.58-0.52,6.51-1.62,8.81-3.3
			c2.3-1.68,4-4.21,5.09-7.61c1.1-3.4,1.65-7.95,1.65-13.66c0-2.6-0.33-4.87-0.99-6.83c-0.66-1.96-2.19-2.94-4.58-2.94
			c-1.72,0-2.98,0.55-3.78,1.65c-0.8,1.1-1.31,2.5-1.53,4.2s-0.33,3.47-0.33,5.3v8.75h-21.94v-15.22c0-8.07,2.57-14.05,7.7-17.95
			c5.13-3.9,11.76-5.84,19.87-5.84c7.11,0,12.71,1.28,16.81,3.84s7.01,6.28,8.75,11.18c1.74,4.9,2.61,10.88,2.61,17.95
			c0,6.91-1.13,13.09-3.39,18.52c-2.26,5.43-5.68,9.71-10.28,12.83s-10.39,4.67-17.38,4.67v10.19H163.28z M162.62,223.33v-17.86
			h21.46v17.86H162.62z"/>
	</g>
</g>
<g>
	<path style="fill:#333FD6;" d="M367.39,265.65c-6.87,0-12.12-1.43-15.76-4.3c-3.64-2.87-6.11-6.87-7.43-12
		c-1.32-5.13-1.97-11.14-1.97-18.02v-96.06h31v92.46c0,5.16,0.39,8.76,1.19,10.79c0.79,2.04,2.66,3.05,5.6,3.05
		c3.17,0,5.16-1.43,5.98-4.3c0.82-2.87,1.23-6.56,1.23-11.1v-90.92h31v129h-31v-13.76c-1.95,4.93-4.28,8.69-7,11.27
		C377.51,264.36,373.23,265.65,367.39,265.65z"/>
	<path style="fill:#333FD6;" d="M430.23,127.27v-26h31v26H430.23z M430.23,264.27v-129h31v129H430.23z"/>
	<path style="fill:#333FD6;" d="M469.23,264.27v-19.08l32.15-85.92h-31.15v-24h63v20.99l-30.59,85.01h30.59v23H469.23z"/>
	<path style="fill:#47DDEF;" d="M608.6,265.51c-8.4,0-14.06-1.78-16.98-5.34c-2.92-3.56-4.39-9.02-4.39-16.37v-80.52h-9v-23h9v-27
		h30v27h9v23h-9v71.7c0,2.08,0.36,3.54,1.07,4.38c0.71,0.84,2.08,1.26,4.1,1.26c1.43,0,2.7-0.11,3.83-0.34v22.89
		c-0.7,0.23-2.87,0.68-6.51,1.35C616.07,265.18,612.36,265.51,608.6,265.51z"/>
	<path style="fill:#47DDEF;" d="M635.23,127.27v-26h31v26H635.23z M635.23,264.27v-129h31v129H635.23z"/>
	<path style="fill:#47DDEF;" d="M678.23,264.27v-129h31v14.96c1.37-5.27,3.71-9.32,7.02-12.13c3.31-2.81,8.16-4.21,14.55-4.21
		c5.14,0,9.52,1.19,13.14,3.57c3.62,2.38,6.18,5.52,7.66,9.42c2.34-4.24,5.09-7.47,8.26-9.68c3.17-2.21,7.69-3.31,13.57-3.31
		c7.13,0,12.63,1.53,16.48,4.6c3.85,3.07,6.53,7.31,8.05,12.73c1.51,5.42,2.27,11.68,2.27,18.79v94.26h-30v-94.79
		c0-8.31-2.16-12.47-6.49-12.47c-2.28,0-4.04,0.76-5.26,2.28c-1.23,1.52-2.08,3.4-2.54,5.63c-0.47,2.24-0.7,4.47-0.7,6.71v92.64h-31
		v-94.79c0-2.69-0.34-5.39-1.01-8.09c-0.68-2.69-2.4-4.04-5.16-4.04c-2.35,0-4.18,0.83-5.47,2.49c-1.29,1.66-2.18,3.71-2.65,6.15
		c-0.47,2.44-0.71,4.83-0.71,7.18v91.09H678.23z"/>
	<path style="fill:#47DDEF;" d="M848.46,266.01c-9.19,0-16.52-1.74-21.97-5.22c-5.46-3.48-9.36-8.49-11.72-15.04
		c-2.36-6.55-3.53-14.44-3.53-23.65v-52.44c0-12.12,3.45-21.29,10.34-27.52c6.89-6.23,16.37-9.35,28.44-9.35
		c24.82,0,37.22,12.29,37.22,36.87v9.48c0,11.48-0.12,19.19-0.34,23.13h-44.66v25.22c0,2.32,0.14,4.59,0.42,6.83
		c0.28,2.23,0.9,4.07,1.87,5.52c0.97,1.45,2.54,2.17,4.71,2.17c3.11,0,5.05-1.4,5.83-4.22c0.78-2.81,1.17-6.48,1.17-11v-12.52h31
		v7.39c0,9.74-1.19,17.9-3.58,24.48c-2.38,6.58-6.41,11.54-12.06,14.87C865.93,264.35,858.22,266.01,848.46,266.01z M842.23,187.27
		h15V169.9c0-4.64-0.59-7.98-1.76-10.02c-1.18-2.03-2.94-3.05-5.29-3.05c-2.53,0-4.49,0.98-5.87,2.92
		c-1.38,1.95-2.07,5.33-2.07,10.15V187.27z"/>
</g>
<g>
</g>
<g>
</g>
<g>
</g>
<g>
</g>
<g>
</g>
<g>
</g>
<g>
</g>
<g>
</g>
<g>
</g>
<g>
</g>
<g>
</g>
<g>
</g>
<g>
</g>
<g>
</g>
<g>
</g>
</svg>
