<?xml version="1.0" encoding="utf-8"?>
<!-- Generator: Adobe Illustrator 26.5.0, SVG Export Plug-In . SVG Version: 6.00 Build 0)  -->
<svg version="1.0" id="Capa_1" xmlns="http://www.w3.org/2000/svg" xmlns:xlink="http://www.w3.org/1999/xlink" x="0px" y="0px"
	 viewBox="0 0 946 264" style="enable-background:new 0 0 946 264;" xml:space="preserve">
<g>
	<path style="fill:#9EC04F;" d="M591.43,174.64c-2.27,2.26-4.47,4.47-6.68,6.67c-2.21,2.19-4.43,4.38-6.72,6.63
		c-0.02-0.27-0.05-0.5-0.05-0.73c0.03-5.37,0.06-10.73,0.09-16.1c0.05-7.34,0.08-14.68,0.16-22.02c0.04-3.42-0.01-6.85,0.27-10.25
		c0.73-9.03,4.03-17.09,9.76-24.1c7.27-8.89,16.62-14.34,27.99-16.01c24-3.53,45.53,12.11,50.27,34.53
		c3.25,15.37-0.58,29-11.32,40.5c-6.92,7.41-15.55,11.85-25.6,13.27c-14.45,2.05-27.02-2.02-37.69-11.98
		C591.76,174.92,591.6,174.79,591.43,174.64z M623,171.7c14.35,0.16,27.83-11.09,28.73-27.16c0.92-16.33-11.62-29.8-27.48-30.41
		c-16.9-0.66-29.69,12.56-30.08,28.04C593.75,158.24,606.7,171.74,623,171.7z"/>
	<path style="fill:#9EC04F;" d="M639.59,148.62c-0.11,3.15-0.93,6.01-2.66,8.53c-4.08,5.95-9.78,8.41-16.87,7.36
		c-6.51-0.97-11.83-6.1-13.32-12.59c-0.27-1.16-0.31-2.37-0.46-3.55c-0.08-0.58,0.24-0.66,0.71-0.64c2.64,0.09,5.28,0.17,7.92,0.24
		c3.24,0.08,6.48,0.14,9.72,0.22c4.76,0.12,9.52,0.26,14.28,0.39C639.1,148.58,639.3,148.6,639.59,148.62z"/>
</g>
<path style="fill:#10283D;" d="M73.31,93.11H37.48V76.12h91.73v16.99H93.38v91.11H73.31V93.11z"/>
<path style="fill:#10283D;" d="M188.2,100.83v18.38c-1.65-0.31-3.14-0.46-4.48-0.46c-7.52,0-13.39,2.19-17.61,6.56
	c-4.22,4.38-6.33,10.68-6.33,18.92v40h-19.3v-82.47h18.38v12.05C164.42,105.15,174.2,100.83,188.2,100.83z"/>
<path style="fill:#10283D;" d="M205.5,84.84c-2.37-2.21-3.55-4.97-3.55-8.26c0-3.29,1.18-6.05,3.55-8.26
	c2.37-2.21,5.3-3.32,8.8-3.32c3.5,0,6.43,1.06,8.8,3.17c2.37,2.11,3.55,4.76,3.55,7.95c0,3.4-1.16,6.26-3.48,8.57
	c-2.32,2.32-5.28,3.47-8.88,3.47C210.8,88.16,207.87,87.06,205.5,84.84z M204.58,101.75h19.3v82.47h-19.3V101.75z"/>
<path style="fill:#10283D;" d="M326.42,101.75l-35.36,82.47h-19.92l-35.36-82.47h20.08l25.63,61.16l26.41-61.16H326.42z"/>
<path style="fill:#10283D;" d="M339.39,84.84c-2.37-2.21-3.55-4.97-3.55-8.26c0-3.29,1.18-6.05,3.55-8.26s5.3-3.32,8.8-3.32
	c3.5,0,6.43,1.06,8.8,3.17c2.37,2.11,3.55,4.76,3.55,7.95c0,3.4-1.16,6.26-3.48,8.57c-2.32,2.32-5.28,3.47-8.88,3.47
	C344.69,88.16,341.75,87.06,339.39,84.84z M338.46,101.75h19.3v82.47h-19.3V101.75z"/>
<path style="fill:#10283D;" d="M442.47,109.55c6.44,5.82,9.65,14.59,9.65,26.33v48.34H433.9v-10.04c-2.37,3.61-5.74,6.36-10.12,8.26
	c-4.38,1.9-9.65,2.86-15.83,2.86c-6.18,0-11.58-1.06-16.22-3.17c-4.63-2.11-8.21-5.05-10.73-8.8c-2.52-3.76-3.78-8-3.78-12.74
	c0-7.41,2.75-13.36,8.26-17.83c5.51-4.48,14.18-6.72,26.02-6.72h21.31v-1.24c0-5.76-1.73-10.19-5.17-13.28
	c-3.45-3.09-8.57-4.63-15.37-4.63c-4.63,0-9.19,0.72-13.67,2.16c-4.48,1.44-8.26,3.45-11.35,6.02l-7.57-14.05
	c4.32-3.29,9.52-5.82,15.6-7.57c6.07-1.75,12.51-2.63,19.3-2.63C426.74,100.83,436.03,103.74,442.47,109.55z M424.86,167.93
	c3.76-2.21,6.41-5.38,7.95-9.5v-9.58H412.9c-11.12,0-16.68,3.66-16.68,10.97c0,3.5,1.39,6.28,4.17,8.34
	c2.78,2.06,6.64,3.09,11.58,3.09C416.81,171.25,421.11,170.14,424.86,167.93z"/>
<path style="fill:#10283D;" d="M558.37,69.63v114.59h-18.53v-10.66c-3.19,3.91-7.13,6.85-11.82,8.8c-4.68,1.95-9.86,2.93-15.52,2.93
	c-7.93,0-15.06-1.75-21.39-5.25c-6.33-3.5-11.3-8.47-14.9-14.9s-5.4-13.82-5.4-22.16c0-8.34,1.8-15.7,5.4-22.08
	s8.57-11.32,14.9-14.83c6.33-3.5,13.46-5.25,21.39-5.25c5.46,0,10.45,0.93,14.98,2.78c4.53,1.85,8.39,4.63,11.58,8.34V69.63H558.37z
	 M527.33,165.61c3.71-2.11,6.64-5.12,8.8-9.04c2.16-3.91,3.24-8.44,3.24-13.59s-1.08-9.68-3.24-13.59c-2.16-3.91-5.1-6.92-8.8-9.03
	c-3.71-2.11-7.88-3.17-12.51-3.17c-4.63,0-8.8,1.06-12.51,3.17c-3.71,2.11-6.64,5.12-8.8,9.03c-2.16,3.91-3.24,8.44-3.24,13.59
	s1.08,9.68,3.24,13.59c2.16,3.91,5.1,6.92,8.8,9.04c3.71,2.11,7.88,3.17,12.51,3.17C519.45,168.78,523.62,167.72,527.33,165.61z"/>
<path style="fill:#10283D;" d="M731.02,100.83v18.38c-1.65-0.31-3.14-0.46-4.48-0.46c-7.52,0-13.39,2.19-17.61,6.56
	c-4.22,4.38-6.33,10.68-6.33,18.92v40h-19.3v-82.47h18.38v12.05C707.24,105.15,717.02,100.83,731.02,100.83z"/>
<path style="fill:#10283D;" d="M823.83,149.16h-64.71c1.13,6.08,4.09,10.89,8.88,14.44c4.79,3.55,10.73,5.33,17.84,5.33
	c9.06,0,16.52-2.98,22.39-8.96l10.35,11.89c-3.71,4.43-8.39,7.77-14.05,10.04c-5.66,2.27-12.05,3.4-19.15,3.4
	c-9.06,0-17.04-1.8-23.94-5.41c-6.9-3.6-12.23-8.62-15.98-15.06c-3.76-6.44-5.64-13.72-5.64-21.85c0-8.03,1.83-15.26,5.48-21.7
	c3.66-6.44,8.73-11.45,15.21-15.06s13.8-5.41,21.93-5.41c8.03,0,15.21,1.78,21.54,5.33c6.33,3.55,11.27,8.54,14.83,14.98
	c3.55,6.44,5.33,13.87,5.33,22.32C824.14,144.79,824.04,146.69,823.83,149.16z M766.77,121.75c-4.27,3.66-6.87,8.52-7.8,14.59h46.79
	c-0.82-5.97-3.34-10.81-7.57-14.52c-4.22-3.71-9.47-5.56-15.75-5.56C776.27,116.27,771.04,118.1,766.77,121.75z"/>
<path style="fill:#10283D;" d="M848.54,182.68c-6.38-1.75-11.48-3.96-15.29-6.64l7.41-14.67c3.71,2.47,8.16,4.45,13.36,5.95
	c5.2,1.49,10.32,2.24,15.37,2.24c11.53,0,17.29-3.04,17.29-9.11c0-2.88-1.47-4.89-4.4-6.02c-2.93-1.13-7.64-2.21-14.13-3.24
	c-6.8-1.03-12.33-2.21-16.6-3.55c-4.27-1.34-7.98-3.68-11.12-7.03c-3.14-3.35-4.71-8-4.71-13.98c0-7.82,3.27-14.08,9.81-18.76
	s15.37-7.03,26.49-7.03c5.66,0,11.32,0.64,16.99,1.93c5.66,1.29,10.29,3.01,13.9,5.17l-7.41,14.67c-7-4.12-14.88-6.18-23.63-6.18
	c-5.66,0-9.96,0.85-12.9,2.55c-2.93,1.7-4.4,3.94-4.4,6.72c0,3.09,1.57,5.28,4.71,6.56c3.14,1.29,8,2.5,14.59,3.63
	c6.59,1.03,11.99,2.22,16.21,3.55s7.85,3.6,10.89,6.8c3.04,3.19,4.56,7.72,4.56,13.59c0,7.72-3.35,13.9-10.04,18.53
	c-6.69,4.63-15.8,6.95-27.33,6.95C861.46,185.3,854.92,184.43,848.54,182.68z"/>
<g>
</g>
<g>
</g>
<g>
</g>
<g>
</g>
<g>
</g>
<g>
</g>
<g>
</g>
<g>
</g>
<g>
</g>
<g>
</g>
<g>
</g>
<g>
</g>
<g>
</g>
<g>
</g>
<g>
</g>
</svg>
