<?xml version="1.0" encoding="utf-8"?>
<!-- Generator: Adobe Illustrator 26.5.0, SVG Export Plug-In . SVG Version: 6.00 Build 0)  -->
<svg version="1.1" id="Capa_1" xmlns="http://www.w3.org/2000/svg" xmlns:xlink="http://www.w3.org/1999/xlink" x="0px" y="0px"
	 viewBox="0 0 946 264" style="enable-background:new 0 0 946 264;" xml:space="preserve">
<style type="text/css">
	.st0{fill:#9EC04F;stroke:#9EC04F;stroke-width:2;stroke-miterlimit:10;}
	.st1{fill:#10283D;stroke:#000000;stroke-miterlimit:10;}
</style>
<g>
	<path class="st0" d="M600.1,178.1c-2.4,2.4-4.8,4.8-7.2,7.1c-2.4,2.4-4.8,4.7-7.2,7.1c0-0.3,0-0.5,0-0.8c0-5.8,0.1-11.5,0.1-17.3
		c0-7.9,0.1-15.7,0.2-23.6c0-3.7,0-7.3,0.3-11c0.8-9.7,4.3-18.3,10.5-25.8c7.8-9.5,17.8-15.4,30-17.2c25.7-3.8,48.8,13,53.9,37
		c3.5,16.5-0.6,31.1-12.1,43.4c-7.4,7.9-16.7,12.7-27.5,14.2c-15.5,2.2-29-2.2-40.4-12.9C600.5,178.4,600.3,178.3,600.1,178.1z
		 M634,175c15.4,0.2,29.8-11.9,30.8-29.1c1-17.5-12.5-32-29.5-32.6c-18.1-0.7-31.8,13.5-32.3,30.1C602.6,160.5,616.5,175,634,175z"
		/>
	<path class="st0" d="M651.8,150.2c-0.1,3.4-1,6.4-2.8,9.1c-4.4,6.4-10.5,9-18.1,7.9c-7-1-12.7-6.5-14.3-13.5
		c-0.3-1.2-0.3-2.5-0.5-3.8c-0.1-0.6,0.3-0.7,0.8-0.7c2.8,0.1,5.7,0.2,8.5,0.2c3.5,0.1,7,0.1,10.4,0.2c5.1,0.1,10.2,0.3,15.3,0.4
		C651.3,150.2,651.5,150.2,651.8,150.2z"/>
</g>
<path class="st1" d="M44.4,90.7H6V72.5h98.4v18.2H66v97.7H44.4V90.7z"/>
<path class="st1" d="M167.7,99v19.7c-1.8-0.3-3.4-0.5-4.8-0.5c-8.1,0-14.4,2.3-18.9,7c-4.5,4.7-6.8,11.5-6.8,20.3v42.9h-20.7V100
	h19.7v12.9C142.1,103.6,152.6,99,167.7,99z"/>
<path class="st1" d="M186.2,81.8c-2.5-2.4-3.8-5.3-3.8-8.9s1.3-6.5,3.8-8.9c2.5-2.4,5.7-3.6,9.4-3.6s6.9,1.1,9.4,3.4
	c2.5,2.3,3.8,5.1,3.8,8.5c0,3.7-1.2,6.7-3.7,9.2c-2.5,2.5-5.7,3.7-9.5,3.7C191.9,85.4,188.8,84.2,186.2,81.8z M185.2,100h20.7v88.5
	h-20.7V100z"/>
<path class="st1" d="M315.9,100L278,188.4h-21.4L218.7,100h21.5l27.5,65.6L296,100C296,100,315.9,100,315.9,100z"/>
<path class="st1" d="M329.8,81.8c-2.5-2.4-3.8-5.3-3.8-8.9s1.3-6.5,3.8-8.9c2.5-2.4,5.7-3.6,9.4-3.6s6.9,1.1,9.4,3.4
	c2.5,2.3,3.8,5.1,3.8,8.5c0,3.7-1.2,6.7-3.7,9.2c-2.5,2.5-5.7,3.7-9.5,3.7C335.5,85.4,332.3,84.2,329.8,81.8z M328.8,100h20.7v88.5
	h-20.7V100z"/>
<path class="st1" d="M440.4,108.3c6.9,6.2,10.4,15.7,10.4,28.2v51.8h-19.5v-10.8c-2.5,3.9-6.2,6.8-10.9,8.9s-10.4,3.1-17,3.1
	s-12.4-1.1-17.4-3.4c-5-2.3-8.8-5.4-11.5-9.4s-4.1-8.6-4.1-13.7c0-7.9,3-14.3,8.9-19.1c5.9-4.8,15.2-7.2,27.9-7.2H430v-1.3
	c0-6.2-1.9-10.9-5.5-14.2c-3.7-3.3-9.2-5-16.5-5c-5,0-9.9,0.8-14.7,2.3s-8.9,3.7-12.2,6.5l-8.1-15.1c4.6-3.5,10.2-6.2,16.7-8.1
	c6.5-1.9,13.4-2.8,20.7-2.8C423.5,99,433.5,102.1,440.4,108.3z M421.5,170.9c4-2.4,6.9-5.8,8.5-10.2v-10.3h-21.4
	c-11.9,0-17.9,3.9-17.9,11.8c0,3.8,1.5,6.7,4.5,8.9s7.1,3.3,12.4,3.3C412.8,174.5,417.5,173.3,421.5,170.9z"/>
<path class="st1" d="M564.7,65.5v122.9h-19.9V177c-3.4,4.2-7.7,7.3-12.7,9.4c-5,2.1-10.6,3.1-16.6,3.1c-8.5,0-16.1-1.9-22.9-5.6
	s-12.1-9.1-16-16s-5.8-14.8-5.8-23.8s1.9-16.8,5.8-23.7c3.9-6.8,9.2-12.2,16-15.9S507,99,515.5,99c5.8,0,11.2,1,16.1,3
	c4.9,2,9,5,12.4,8.9V65.5H564.7z M531.4,168.4c4-2.3,7.1-5.5,9.4-9.7s3.5-9.1,3.5-14.6c0-5.5-1.2-10.4-3.5-14.6s-5.5-7.4-9.4-9.7
	c-4-2.3-8.5-3.4-13.4-3.4s-9.4,1.1-13.4,3.4c-4,2.3-7.1,5.5-9.4,9.7c-2.3,4.2-3.5,9.1-3.5,14.6c0,5.5,1.2,10.4,3.5,14.6
	s5.5,7.4,9.4,9.7c4,2.3,8.4,3.4,13.4,3.4C522.9,171.9,527.4,170.7,531.4,168.4z"/>
<path class="st1" d="M749.8,99v19.7c-1.8-0.3-3.4-0.5-4.8-0.5c-8.1,0-14.4,2.3-18.9,7c-4.5,4.7-6.8,11.5-6.8,20.3v42.9h-20.7V100
	h19.7v12.9C724.3,103.6,734.8,99,749.8,99z"/>
<path class="st1" d="M849.4,150.8H780c1.2,6.5,4.4,11.7,9.5,15.5c5.1,3.8,11.5,5.7,19.1,5.7c9.7,0,17.7-3.2,24-9.6l11.1,12.8
	c-4,4.8-9,8.3-15.1,10.8c-6.1,2.4-12.9,3.6-20.5,3.6c-9.7,0-18.3-1.9-25.7-5.8c-7.4-3.9-13.1-9.2-17.1-16.1s-6-14.7-6-23.4
	c0-8.6,2-16.4,5.9-23.3s9.4-12.3,16.3-16.2S796.3,99,805,99c8.6,0,16.3,1.9,23.1,5.7s12.1,9.2,15.9,16.1c3.8,6.9,5.7,14.9,5.7,23.9
	C849.7,146.1,849.6,148.2,849.4,150.8z M788.2,121.4c-4.6,3.9-7.4,9.1-8.4,15.6H830c-0.9-6.4-3.6-11.6-8.1-15.6
	c-4.5-4-10.2-6-16.9-6C798.4,115.5,792.8,117.5,788.2,121.4z"/>
<path class="st1" d="M875.9,186.8c-6.8-1.9-12.3-4.2-16.4-7.1l8-15.7c4,2.6,8.8,4.8,14.3,6.4c5.6,1.6,11.1,2.4,16.5,2.4
	c12.4,0,18.5-3.3,18.5-9.8c0-3.1-1.6-5.2-4.7-6.5c-3.2-1.2-8.2-2.4-15.2-3.5c-7.3-1.1-13.2-2.4-17.8-3.8c-4.6-1.4-8.6-3.9-11.9-7.5
	c-3.4-3.6-5-8.6-5-15c0-8.4,3.5-15.1,10.5-20.1s16.5-7.5,28.4-7.5c6.1,0,12.2,0.7,18.2,2.1c6.1,1.4,11,3.2,14.9,5.6l-8,15.7
	c-7.5-4.4-16-6.6-25.3-6.6c-6.1,0-10.7,0.9-13.8,2.7s-4.7,4.2-4.7,7.2c0,3.3,1.7,5.7,5,7s8.6,2.7,15.7,3.9
	c7.1,1.1,12.9,2.4,17.4,3.8s8.4,3.9,11.7,7.3c3.3,3.4,4.9,8.3,4.9,14.6c0,8.3-3.6,14.9-10.8,19.9c-7.2,5-17,7.4-29.3,7.4
	C889.7,189.6,882.7,188.6,875.9,186.8z"/>
<text transform="matrix(1 0 0 1 0 575.3583)" style="fill:#10283D; font-family:'MyriadPro-Regular'; font-size:133.5544px;">whatyshop</text>
<g>
	<path class="st0" d="M-99.1,568.7c-2.4,2.4-4.8,4.8-7.2,7.2c-2.4,2.3-4.8,4.7-7.2,7.1c0-0.3,0-0.5,0-0.8c0-5.8,0.1-11.5,0.1-17.3
		c0-7.9,0.1-15.7,0.2-23.6c0-3.7,0-7.3,0.3-11c0.8-9.7,4.3-18.3,10.5-25.8c7.8-9.5,17.8-15.4,30-17.2c25.7-3.8,48.8,13,53.9,37
		c3.5,16.5-0.6,31.1-12.1,43.4c-7.4,8-16.7,12.7-27.5,14.2c-15.5,2.2-29-2.2-40.4-12.9C-98.7,569-98.9,568.8-99.1,568.7z
		 M-65.2,565.5c15.4,0.2,29.8-11.9,30.8-29.1c1-17.5-12.5-32-29.5-32.6c-18.1-0.7-31.8,13.5-32.3,30.1
		C-96.6,551.1-82.7,565.6-65.2,565.5z"/>
	<path class="st0" d="M-47.4,540.8c-0.1,3.4-1,6.4-2.8,9.1c-4.4,6.4-10.5,9-18.1,7.9c-7-1-12.7-6.5-14.3-13.5
		c-0.3-1.2-0.3-2.5-0.5-3.8c-0.1-0.6,0.3-0.7,0.8-0.7c2.8,0.1,5.7,0.2,8.5,0.2c3.5,0.1,7,0.1,10.4,0.2c5.1,0.1,10.2,0.3,15.3,0.4
		C-47.9,540.7-47.7,540.7-47.4,540.8z"/>
</g>
<text transform="matrix(1 0 0 1 30.7188 674.6289)" style="font-family:'MyriadPro-Regular'; font-size:83.1348px;">whaty</text>
</svg>
